<svg width="50" height="50" viewBox="0 0 50 50" fill="none" xmlns="http://www.w3.org/2000/svg">
<g clip-path="url(#clip0)">
<path d="M2.0833 2.70825H47.9167V47.2917H2.0833V2.70825Z" fill="url(#paint0_radial)"/>
<path d="M2.08331 2.70825H47.9168V47.2917H2.08331V2.70825ZM0 49.3751H50.0001V0.624939H0V49.3751ZM32.75 18C32.75 17.8333 32.8125 17.7499 33.0001 17.7499H36.2709C36.4375 17.7499 36.5209 17.8124 36.5209 18V34.4376C36.5209 34.6041 36.4792 34.6875 36.2709 34.6875H33.0417C32.8334 34.6875 32.7709 34.5834 32.7709 34.4167V18H32.75ZM32.5209 13.2708C32.5209 11.9375 33.4583 11.1458 34.6459 11.1458C35.9168 11.1458 36.7709 11.9999 36.7709 13.2708C36.7709 14.6458 35.8751 15.3957 34.6043 15.3957C33.3959 15.3958 32.5209 14.6458 32.5209 13.2708ZM23.1459 24.8542C22.5626 22.5416 21.1876 17.5 20.6667 15.0625H20.625C20.1875 17.5 19.0834 21.6249 18.2084 24.8542H23.1459ZM17.3542 28.2292L15.7083 34.4792C15.6667 34.6458 15.6042 34.6875 15.3959 34.6875H12.3334C12.1251 34.6875 12.0833 34.625 12.1251 34.375L18.0417 13.6666C18.1459 13.2916 18.2084 12.9582 18.25 11.9375C18.25 11.7916 18.3125 11.7291 18.4167 11.7291H22.7917C22.9375 11.7291 23 11.7708 23.0417 11.9375L29.6667 34.4167C29.7083 34.5832 29.6667 34.6875 29.5 34.6875H26.0417C25.875 34.6875 25.7708 34.6458 25.7292 34.5001L24.0208 28.2292H17.3542Z" fill="#FF7F18"/>
</g>
<defs>
<radialGradient id="paint0_radial" cx="0" cy="0" r="1" gradientUnits="userSpaceOnUse" gradientTransform="translate(17.1786 12.6995) scale(34.8334 33.7251)">
<stop stop-color="#423325" stop-opacity="0.98"/>
<stop offset="1" stop-color="#1C0A00"/>
</radialGradient>
<clipPath id="clip0">
<rect width="50" height="50" fill="white"/>
</clipPath>
</defs>
</svg>
