<svg width="30" height="30" viewBox="0 0 30 30" fill="none" xmlns="http://www.w3.org/2000/svg">
<g clip-path="url(#clip0)">
<path d="M1.87513 2.04112C-0.482373 4.48987 0.000127003 7.09112 0.000127003 14.9936C0.000127003 21.5561 -1.14487 28.1349 4.84763 29.6836C6.71888 30.1649 23.2989 30.1649 25.1676 29.6811C27.6626 29.0374 29.6926 27.0136 29.9701 23.4849C30.0089 22.9924 30.0089 7.00362 29.9689 6.50112C29.6739 2.74237 27.3601 0.576125 24.3114 0.137375C23.6126 0.0361249 23.4726 0.00612487 19.8876 -0.000125126C7.17138 0.00612487 4.38388 -0.560125 1.87513 2.04112V2.04112Z" fill="#595959"/>
<path d="M15.2812 4.21064C10.7425 4.21064 6.43245 3.80689 4.7862 8.03189C4.1062 9.77689 4.20495 12.0431 4.20495 15.2881C4.20495 18.1356 4.1137 20.8119 4.7862 22.5431C6.4287 26.7706 10.7737 26.3656 15.2787 26.3656C19.625 26.3656 24.1062 26.8181 25.7725 22.5431C26.4537 20.7806 26.3537 18.5481 26.3537 15.2881C26.3537 10.9606 26.5925 8.16689 24.4937 6.06939C22.3687 3.94439 19.495 4.21064 15.2762 4.21064H15.2812ZM14.2887 6.20689C23.7562 6.19189 24.9612 5.13939 24.2962 19.7606C24.06 24.9319 20.1225 24.3644 15.2825 24.3644C6.45745 24.3644 6.2037 24.1119 6.2037 15.2831C6.2037 6.35189 6.9037 6.21189 14.2887 6.20439V6.20689ZM21.1937 8.04564C20.46 8.04564 19.865 8.64064 19.865 9.37439C19.865 10.1081 20.46 10.7031 21.1937 10.7031C21.9275 10.7031 22.5225 10.1081 22.5225 9.37439C22.5225 8.64064 21.9275 8.04564 21.1937 8.04564ZM15.2812 9.59939C12.14 9.59939 9.5937 12.1469 9.5937 15.2881C9.5937 18.4294 12.14 20.9756 15.2812 20.9756C18.4225 20.9756 20.9675 18.4294 20.9675 15.2881C20.9675 12.1469 18.4225 9.59939 15.2812 9.59939ZM15.2812 11.5956C20.1625 11.5956 20.1687 18.9806 15.2812 18.9806C10.4012 18.9806 10.3937 11.5956 15.2812 11.5956Z" fill="white"/>
</g>
<defs>
<clipPath id="clip0">
<rect width="30" height="30" fill="white"/>
</clipPath>
</defs>
</svg>
