<svg width="50" height="50" viewBox="0 0 50 50" fill="none" xmlns="http://www.w3.org/2000/svg">
<path d="M33.8235 38.1052V34.3834C36.7647 32.4283 39.8235 28.9023 40.7397 24.3814C41.0132 24.5308 41.0426 24.628 41.3471 24.628C42.8044 24.628 43.8603 22.7613 43.8603 20.4609C43.8603 18.1954 42.65 16.3606 41.2221 16.3055C41.4971 15.3279 41.6529 14.0182 41.6529 12.3386C41.6529 6.73136 36.7647 0 25.7956 0C16.0471 0 9.94706 6.73136 9.94706 12.3386C9.94706 13.9675 10.0485 15.3018 10.2235 16.3345C8.88382 16.5332 7.82794 18.2955 7.82794 20.4609C7.82794 22.7627 9.01029 24.628 10.4691 24.628C10.7721 24.628 10.5059 24.5308 10.7765 24.3814C11.6941 28.9009 14.7059 32.4283 17.6471 34.382V37.8833C10.2941 38.8188 0 42.8683 0 46.9193V48.4582C0 50 1.58235 50 3.14265 50H46.8559C48.4176 50 50 50 50 48.4597V46.9208C50 43.128 41.1765 39.3424 33.8235 38.1052V38.1052Z" fill="#226699"/>
</svg>
